<svg id="Layer_1" data-name="Layer 1" xmlns="http://www.w3.org/2000/svg" viewBox="0 0 281.4 88.61"><title>projectmanager_d(2)</title><path d="M0-3.61H17.88C28.39-3.61,35.2,2.08,35.2,11.7v.11c0,10.28-7.6,15.64-17.88,15.64H11.51V39.86H0ZM17,18.07c4.13,0,6.59-2.24,6.59-5.7v-.12c0-3.68-2.46-5.7-6.7-5.7H11.51V18H17ZM40.12-3.61H59.79c6.37,0,10.84,1.67,13.63,4.69a13.55,13.55,0,0,1,3.69,10.17v.11a13.68,13.68,0,0,1-8.6,13.41l9.94,15.09H65.15L56.77,26.67h-5V39.86H40.12ZM59.23,17.28c3.91,0,6.15-2,6.15-5.14V12c0-3.46-2.35-5.14-6.26-5.14H51.63V17.28Zm22.24,1v-.11a22.47,22.47,0,0,1,44.93-1.12v1.12A22.47,22.47,0,0,1,81.47,19.3Zm33.08,0v-.11c0-6.26-4.36-11.74-10.73-11.74s-10.5,5.37-10.5,11.63v.11c0,6.26,4.35,11.73,10.61,11.73s10.73-5.25,10.62-11.62Zm12.63,15.09L134.67,26c2,2.57,3.91,4,6.48,4,2.9,0,4.8-2,4.8-6V-3.61h11.51V24c0,5.47-1.34,9.27-4.13,12.29a15.49,15.49,0,0,1-11.4,4.47C134.55,40.64,130.08,37.51,127.18,33.38Zm37.1-37h33.53V6.67H175.68v6.59h20v9.5h-20v6.93H198V39.86H164.28Zm38,21.9v-.11c0-12.63,9.27-22.58,21.9-22.58,8.49,0,14,3.69,17.66,9.06l-8.72,7C230.77,8.57,228,6.55,224,6.55c-5.81,0-10,5.15-10,11.52v.11c0,6.48,4.14,11.62,10,11.62,4.36,0,6.93-2.12,9.39-5.25L242.06,31c-3.91,5.7-9.27,9.83-18.44,9.83C211.78,40.75,202.28,31.36,202.28,18.29ZM257.37,7H244.86V-3.61H281.4V6.89H268.88v33H257.37Z" transform="translate(0 4.85)" fill="#fff"/><path d="M0,44H10.9l8.9,15.1L28.7,44h11v38.9H29.4V60.56l-9.5,15.2h-.2l-9.5-15.1v22.2H0Zm59.2-.2h10L85.1,83H74l-2.7-7H56.9l-2.7,7H43.3Zm9.1,23.8-4.2-11.1-4.2,11.1ZM88.7,44h9.6l15.4,20.6V44h10.2v38.9h-9.1l-16-21.4v21.4H88.7Zm54.7-.2h10L169.3,83H158.2l-2.7-7H141.1l-2.7,7H127.5Zm9.1,23.8-4.2-11.1-4.2,11.1Zm16.7-4v-.1a19.75,19.75,0,0,1,20.1-20.2A21.13,21.13,0,0,1,204.4,49l-6.1,7.6a12.63,12.63,0,0,0-9-3.7c-5.4,0-9.5,4.7-9.5,10.7v.1c0,6.3,4.2,10.8,10.1,10.8a10.62,10.62,0,0,0,6-1.6v-4.7h-7.4v-7.9h17.2v17.5a24.79,24.79,0,0,1-16.2,6C177.9,83.66,169.2,75.36,169.2,63.56ZM211.5,44h30v9.2H221.7v5.9h17.9v8.5H221.7v6.2h20v9.1H211.5ZM247,44h17.7c5.7,0,9.7,1.5,12.2,4.2a12.11,12.11,0,0,1,3.3,9.1v.1a12.24,12.24,0,0,1-7.7,12L281.4,83h-12l-7.5-11.8h-4.5v11.7H247.1V44Zm17.2,18.7c3.5,0,5.5-1.8,5.5-4.6V58c0-3.1-2.1-4.6-5.6-4.6h-6.8v9.3Z" transform="translate(0 4.85)" fill="#fff"/></svg>